name rise30.3154peak39.0474fall46.5389.mot
datacolumns 19
datarows 36
range 11.74162500000000 11.79996200000000
endheader
time	ground_force1_vx	ground_force1_vy	ground_force1_vz	ground_force1_px	ground_force1_py	ground_force1_pz	ground_force2_vx	ground_force2_vy	ground_force2_vz	ground_force2_px	ground_force2_py	ground_force2_pz	ground_torque1_x	ground_torque1_y	ground_torque1_z	ground_torque2_x	ground_torque2_y	ground_torque2_z	
11.74162500000000	53.85768500000000	727.35519199999999	53.57937900000000	0.36096000000000	0.00000000000000	0.09417000000000	-0.28173700000000	7.16451900000000	0.77199400000000	0.00000000000000	0.00000000000000	0.00000000000000	0.00000000000000	26.71136800000000	0.00000000000000	0.00000000000000	-0.00287700000000	0.00000000000000	
11.74329000000000	53.34961900000000	730.86545999999998	53.67121800000000	0.35948900000000	0.00000000000000	0.09417000000000	0.03610100000000	3.59739200000000	0.45494600000000	0.00000000000000	0.00000000000000	0.00000000000000	0.00000000000000	26.69954000000000	0.00000000000000	0.00000000000000	0.01991700000000	0.00000000000000	
11.74495500000000	52.84434600000000	734.32371599999999	53.76814300000000	0.35806300000000	0.00000000000000	0.09417000000000	0.00000000000000	0.00000000000000	0.00000000000000	0.00000000000000	0.00000000000000	0.00000000000000	0.00000000000000	26.69436600000000	0.00000000000000	0.00000000000000	0.00000000000000	0.00000000000000	
11.74662200000000	52.34233700000000	737.72599000000002	53.87008800000000	0.35668300000000	0.00000000000000	0.09416700000000	0.00000000000000	0.00000000000000	0.00000000000000	0.00000000000000	0.00000000000000	0.00000000000000	0.00000000000000	26.69588400000000	0.00000000000000	0.00000000000000	0.00000000000000	0.00000000000000	
11.74828900000000	51.84398600000000	741.06818999999996	53.97689100000000	0.35535200000000	0.00000000000000	0.09416300000000	0.00000000000000	0.00000000000000	0.00000000000000	0.00000000000000	0.00000000000000	0.00000000000000	0.00000000000000	26.70406000000000	0.00000000000000	0.00000000000000	0.00000000000000	0.00000000000000	
11.74995500000000	51.34960600000000	744.34613500000000	54.08829700000000	0.35406800000000	0.00000000000000	0.09415700000000	0.00000000000000	0.00000000000000	0.00000000000000	0.00000000000000	0.00000000000000	0.00000000000000	0.00000000000000	26.71879100000000	0.00000000000000	0.00000000000000	0.00000000000000	0.00000000000000	
11.75162400000000	50.85943800000000	747.55556700000000	54.20396300000000	0.35283300000000	0.00000000000000	0.09415000000000	0.00000000000000	0.00000000000000	0.00000000000000	0.00000000000000	0.00000000000000	0.00000000000000	0.00000000000000	26.73991200000000	0.00000000000000	0.00000000000000	0.00000000000000	0.00000000000000	
11.75329400000000	50.37365000000000	750.69218400000000	54.32346400000000	0.35164700000000	0.00000000000000	0.09414000000000	0.00000000000000	0.00000000000000	0.00000000000000	0.00000000000000	0.00000000000000	0.00000000000000	0.00000000000000	26.76719600000000	0.00000000000000	0.00000000000000	0.00000000000000	0.00000000000000	
11.75495400000000	49.89234400000000	753.75165700000002	54.44629900000000	0.35051000000000	0.00000000000000	0.09412900000000	0.00000000000000	0.00000000000000	0.00000000000000	0.00000000000000	0.00000000000000	0.00000000000000	0.00000000000000	26.80035800000000	0.00000000000000	0.00000000000000	0.00000000000000	0.00000000000000	
11.75662400000000	49.41555400000000	756.72965599999998	54.57189200000000	0.34942200000000	0.00000000000000	0.09411500000000	0.00000000000000	0.00000000000000	0.00000000000000	0.00000000000000	0.00000000000000	0.00000000000000	0.00000000000000	26.83905900000000	0.00000000000000	0.00000000000000	0.00000000000000	0.00000000000000	
11.75828800000000	48.94325400000000	759.62187200000005	54.69960400000000	0.34838300000000	0.00000000000000	0.09409900000000	0.00000000000000	0.00000000000000	0.00000000000000	0.00000000000000	0.00000000000000	0.00000000000000	0.00000000000000	26.88290700000000	0.00000000000000	0.00000000000000	0.00000000000000	0.00000000000000	
11.75996200000000	48.47536100000000	762.42403999999999	54.82873500000000	0.34739100000000	0.00000000000000	0.09408100000000	0.00000000000000	0.00000000000000	0.00000000000000	0.00000000000000	0.00000000000000	0.00000000000000	0.00000000000000	26.93146600000000	0.00000000000000	0.00000000000000	0.00000000000000	0.00000000000000	
11.76162500000000	48.01174100000000	765.13195900000005	54.95853100000000	0.34644800000000	0.00000000000000	0.09406100000000	0.00000000000000	0.00000000000000	0.00000000000000	0.00000000000000	0.00000000000000	0.00000000000000	0.00000000000000	26.98425700000000	0.00000000000000	0.00000000000000	0.00000000000000	0.00000000000000	
11.76328700000000	47.55220600000000	767.74152000000004	55.08819400000000	0.34555000000000	0.00000000000000	0.09403700000000	0.00000000000000	0.00000000000000	0.00000000000000	0.00000000000000	0.00000000000000	0.00000000000000	0.00000000000000	27.04075900000000	0.00000000000000	0.00000000000000	0.00000000000000	0.00000000000000	
11.76495500000000	47.09653000000000	770.24871800000005	55.21688500000000	0.34469800000000	0.00000000000000	0.09401200000000	0.00000000000000	0.00000000000000	0.00000000000000	0.00000000000000	0.00000000000000	0.00000000000000	0.00000000000000	27.10041900000000	0.00000000000000	0.00000000000000	0.00000000000000	0.00000000000000	
11.76663000000000	46.64444100000000	772.64968099999999	55.34373300000000	0.34389000000000	0.00000000000000	0.09398400000000	0.00000000000000	0.00000000000000	0.00000000000000	0.00000000000000	0.00000000000000	0.00000000000000	0.00000000000000	27.16265400000000	0.00000000000000	0.00000000000000	0.00000000000000	0.00000000000000	
11.76829400000000	46.19563800000000	774.94068300000004	55.46784100000000	0.34312400000000	0.00000000000000	0.09395300000000	0.00000000000000	0.00000000000000	0.00000000000000	0.00000000000000	0.00000000000000	0.00000000000000	0.00000000000000	27.22685200000000	0.00000000000000	0.00000000000000	0.00000000000000	0.00000000000000	
11.76996300000000	45.74978500000000	777.11816799999997	55.58829400000000	0.34240000000000	0.00000000000000	0.09391900000000	0.00000000000000	0.00000000000000	0.00000000000000	0.00000000000000	0.00000000000000	0.00000000000000	0.00000000000000	27.29238000000000	0.00000000000000	0.00000000000000	0.00000000000000	0.00000000000000	
11.77162600000000	45.30652200000000	779.17876400000000	55.70416600000000	0.34171400000000	0.00000000000000	0.09388300000000	0.00000000000000	0.00000000000000	0.00000000000000	0.00000000000000	0.00000000000000	0.00000000000000	0.00000000000000	27.35858800000000	0.00000000000000	0.00000000000000	0.00000000000000	0.00000000000000	
11.77329200000000	44.86546900000000	781.11930199999995	55.81452600000000	0.34106600000000	0.00000000000000	0.09384400000000	0.00000000000000	0.00000000000000	0.00000000000000	0.00000000000000	0.00000000000000	0.00000000000000	0.00000000000000	27.42481000000000	0.00000000000000	0.00000000000000	0.00000000000000	0.00000000000000	
11.77495900000000	44.42622800000000	782.93682899999999	55.91844600000000	0.34045300000000	0.00000000000000	0.09380200000000	0.00000000000000	0.00000000000000	0.00000000000000	0.00000000000000	0.00000000000000	0.00000000000000	0.00000000000000	27.49037200000000	0.00000000000000	0.00000000000000	0.00000000000000	0.00000000000000	
11.77663000000000	43.98838900000000	784.62862700000005	56.01500500000000	0.33987400000000	0.00000000000000	0.09375800000000	0.00000000000000	0.00000000000000	0.00000000000000	0.00000000000000	0.00000000000000	0.00000000000000	0.00000000000000	27.55459400000000	0.00000000000000	0.00000000000000	0.00000000000000	0.00000000000000	
11.77829400000000	43.55153800000000	786.19222300000001	56.10330100000000	0.33932500000000	0.00000000000000	0.09371000000000	0.00000000000000	0.00000000000000	0.00000000000000	0.00000000000000	0.00000000000000	0.00000000000000	0.00000000000000	27.61679400000000	0.00000000000000	0.00000000000000	0.00000000000000	0.00000000000000	
11.77995900000000	43.11525600000000	787.62540100000001	56.18244900000000	0.33880500000000	0.00000000000000	0.09366000000000	0.00000000000000	0.00000000000000	0.00000000000000	0.00000000000000	0.00000000000000	0.00000000000000	0.00000000000000	27.67629300000000	0.00000000000000	0.00000000000000	0.00000000000000	0.00000000000000	
11.78162300000000	42.67912400000000	788.92621599999995	56.25159400000000	0.33831100000000	0.00000000000000	0.09360700000000	0.00000000000000	0.00000000000000	0.00000000000000	0.00000000000000	0.00000000000000	0.00000000000000	0.00000000000000	27.73241800000000	0.00000000000000	0.00000000000000	0.00000000000000	0.00000000000000	
11.78328800000000	42.24273300000000	790.09300199999996	56.30991600000000	0.33784000000000	0.00000000000000	0.09355100000000	0.00000000000000	0.00000000000000	0.00000000000000	0.00000000000000	0.00000000000000	0.00000000000000	0.00000000000000	27.78450600000000	0.00000000000000	0.00000000000000	0.00000000000000	0.00000000000000	
11.78495900000000	41.80567900000000	791.12437999999997	56.35662800000000	0.33739100000000	0.00000000000000	0.09349300000000	0.00000000000000	0.00000000000000	0.00000000000000	0.00000000000000	0.00000000000000	0.00000000000000	0.00000000000000	27.83190800000000	0.00000000000000	0.00000000000000	0.00000000000000	0.00000000000000	
11.78662400000000	41.36757400000000	792.01926500000002	56.39099100000000	0.33696000000000	0.00000000000000	0.09343200000000	0.00000000000000	0.00000000000000	0.00000000000000	0.00000000000000	0.00000000000000	0.00000000000000	0.00000000000000	27.87399300000000	0.00000000000000	0.00000000000000	0.00000000000000	0.00000000000000	
11.78829300000000	40.92804500000000	792.77687300000002	56.41231000000000	0.33654500000000	0.00000000000000	0.09336800000000	0.00000000000000	0.00000000000000	0.00000000000000	0.00000000000000	0.00000000000000	0.00000000000000	0.00000000000000	27.91014900000000	0.00000000000000	0.00000000000000	0.00000000000000	0.00000000000000	
11.78996000000000	40.48674200000000	793.39672700000006	56.41994400000000	0.33614200000000	0.00000000000000	0.09330200000000	0.00000000000000	0.00000000000000	0.00000000000000	0.00000000000000	0.00000000000000	0.00000000000000	0.00000000000000	27.93979000000000	0.00000000000000	0.00000000000000	0.00000000000000	0.00000000000000	
11.79162400000000	40.04333300000000	793.87865499999998	56.41330600000000	0.33575000000000	0.00000000000000	0.09323300000000	0.00000000000000	0.00000000000000	0.00000000000000	0.00000000000000	0.00000000000000	0.00000000000000	0.00000000000000	27.96235600000000	0.00000000000000	0.00000000000000	0.00000000000000	0.00000000000000	
11.79329100000000	39.59751700000000	794.22279800000001	56.39186900000000	0.33536500000000	0.00000000000000	0.09316100000000	0.00000000000000	0.00000000000000	0.00000000000000	0.00000000000000	0.00000000000000	0.00000000000000	0.00000000000000	27.97731700000000	0.00000000000000	0.00000000000000	0.00000000000000	0.00000000000000	
11.79495600000000	39.14901600000000	794.42960700000003	56.35516500000000	0.33498400000000	0.00000000000000	0.09308800000000	0.00000000000000	0.00000000000000	0.00000000000000	0.00000000000000	0.00000000000000	0.00000000000000	0.00000000000000	27.98417500000000	0.00000000000000	0.00000000000000	0.00000000000000	0.00000000000000	
11.79662800000000	38.69758700000000	794.49984400000005	56.30279000000000	0.33460500000000	0.00000000000000	0.09301200000000	0.00000000000000	0.00000000000000	0.00000000000000	0.00000000000000	0.00000000000000	0.00000000000000	0.00000000000000	27.98246900000000	0.00000000000000	0.00000000000000	0.00000000000000	0.00000000000000	
11.79829400000000	38.24301500000000	794.43457799999999	56.23440900000000	0.33422500000000	0.00000000000000	0.09293400000000	0.00000000000000	0.00000000000000	0.00000000000000	0.00000000000000	0.00000000000000	0.00000000000000	0.00000000000000	27.97177400000000	0.00000000000000	0.00000000000000	0.00000000000000	0.00000000000000	
11.79996200000000	37.78512200000000	794.23518500000000	56.14974800000000	0.33384100000000	0.00000000000000	0.09285400000000	0.00000000000000	0.00000000000000	0.00000000000000	0.00000000000000	0.00000000000000	0.00000000000000	0.00000000000000	27.95170400000000	0.00000000000000	0.00000000000000	0.00000000000000	0.00000000000000	
